HIERARCHY
ROOT joint_Root
{
	OFFSET 0.0 0.0 0.0
	CHANNELS 6 Xposition Yposition Zposition Zrotation Xrotation Yrotation 
	JOINT Hips
	{
		OFFSET -0.726466 93.3139 -2.00062
		CHANNELS 6 Xposition Yposition Zposition Zrotation Xrotation Yrotation 
		JOINT Spine
		{
			OFFSET 15.7357 0.0 0.0
			CHANNELS 6 Xposition Yposition Zposition Zrotation Xrotation Yrotation 
			JOINT Chest
			{
				OFFSET 8.98455 -0.406207 0.0
				CHANNELS 6 Xposition Yposition Zposition Zrotation Xrotation Yrotation 
				JOINT Neck
				{
					OFFSET 16.3773 0.0 0.0
					CHANNELS 6 Xposition Yposition Zposition Zrotation Xrotation Yrotation 
					JOINT Head
					{
						OFFSET 6.45672 0.0 0.0
						CHANNELS 6 Xposition Yposition Zposition Zrotation Xrotation Yrotation 
						End Site
						{
							OFFSET 0.0 0.0 0.0
						}
					}
				}
				JOINT Shoulder_L
				{
					OFFSET 12.9942 -0.242716 4.98039
					CHANNELS 6 Xposition Yposition Zposition Zrotation Xrotation Yrotation 
					JOINT UpperArm_L
					{
						OFFSET 5.34809 0.0 0.0
						CHANNELS 6 Xposition Yposition Zposition Zrotation Xrotation Yrotation 
						JOINT LowerArm_L
						{
							OFFSET 24.3286 1.87007e-05 0.0
							CHANNELS 6 Xposition Yposition Zposition Zrotation Xrotation Yrotation 
							JOINT Hand_L
							{
								OFFSET 22.2916 0.0 0.0
								CHANNELS 6 Xposition Yposition Zposition Zrotation Xrotation Yrotation 
								End Site
								{
									OFFSET 0.0 0.0 0.0
								}
							}
						}
					}
				}
				JOINT Shoulder_R
				{
					OFFSET 12.9945 -0.242716 -4.98039
					CHANNELS 6 Xposition Yposition Zposition Zrotation Xrotation Yrotation 
					JOINT UpperArm_R
					{
						OFFSET -5.34813 0.0 0.0
						CHANNELS 6 Xposition Yposition Zposition Zrotation Xrotation Yrotation 
						JOINT LowerArm_R
						{
							OFFSET -24.3289 0.000322201 0.0
							CHANNELS 6 Xposition Yposition Zposition Zrotation Xrotation Yrotation 
							JOINT Hand_R
							{
								OFFSET -22.2915 -0.000108084 0.0
								CHANNELS 6 Xposition Yposition Zposition Zrotation Xrotation Yrotation 
								End Site
								{
									OFFSET 0.0 0.0 0.0
								}
							}
						}
					}
				}
			}
		}
		JOINT UpperLeg_L
		{
			OFFSET -2.19248 -6.46944 0.0
			CHANNELS 6 Xposition Yposition Zposition Zrotation Xrotation Yrotation 
			JOINT LowerLeg_L
			{
				OFFSET 39.0811 0.0 -1.23785e-05
				CHANNELS 6 Xposition Yposition Zposition Zrotation Xrotation Yrotation 
				JOINT Foot_L
				{
					OFFSET 40.9854 0.0 -1.26872e-05
					CHANNELS 6 Xposition Yposition Zposition Zrotation Xrotation Yrotation 
					JOINT Toes_L
					{
						OFFSET 11.7543 0.0 0.0
						CHANNELS 6 Xposition Yposition Zposition Zrotation Xrotation Yrotation 
						End Site
						{
							OFFSET 0.0 0.0 0.0
						}
					}
				}
			}
		}
		JOINT UpperLeg_R
		{
			OFFSET -2.19251 6.46944 0.0
			CHANNELS 6 Xposition Yposition Zposition Zrotation Xrotation Yrotation 
			JOINT LowerLeg_R
			{
				OFFSET -39.0811 -0.00228153 -0.0401928
				CHANNELS 6 Xposition Yposition Zposition Zrotation Xrotation Yrotation 
				JOINT Foot_R
				{
					OFFSET -40.9854 0.0 0.0
					CHANNELS 6 Xposition Yposition Zposition Zrotation Xrotation Yrotation 
					JOINT Toes_R
					{
						OFFSET -11.7543 0.0 0.0
						CHANNELS 6 Xposition Yposition Zposition Zrotation Xrotation Yrotation 
						End Site
						{
							OFFSET 0.0 0.0 0.0
						}
					}
				}
			}
		}
	}
}
MOTION
Frames:	7
Frame Time:	0.0333333
0.000000 0.000000 0.000000 0.000000 0.000000 -0.000000 -2.232930 91.573600 -2.022610 87.696700 -1.507190 9.264060 15.735700 0.000005 -0.000001 85.942800 82.228500 -85.087300 8.984550 -0.406207 -0.000000 7.747850 -1.095370 1.783510 16.377300 -0.000001 -0.000001 6.361790 -2.774720 0.812076 6.456720 -0.000001 -0.000000 -0.680726 -0.992828 -1.175100 12.994200 -0.242716 4.980390 -90.414300 1.442240 -73.970700 5.348090 -0.000007 -0.000001 -62.193700 32.554800 -12.345000 24.328600 0.000019 0.000005 0.991712 1.606290 -31.695900 22.291600 -0.000001 0.000005 1.872830 5.602170 -11.472600 12.994500 -0.242716 -4.980390 88.025100 5.839300 -71.277000 -5.348130 -0.000001 -0.000004 -61.990900 29.263100 -15.047600 -24.328900 0.000322 -0.000009 -3.606520 -6.256220 -30.036700 -22.291500 -0.000108 -0.000004 5.138050 5.610770 -12.008400 -2.192480 -6.469440 -0.000000 -165.518000 -19.182300 1.378030 39.081100 -0.000007 -0.000012 -0.206472 0.450921 24.602900 40.985400 -0.000006 -0.000013 -7.314650 0.647524 -63.421700 11.754300 -0.000000 0.000003 -0.000100 -0.001029 -16.617000 -2.192510 6.469440 -0.000001 173.080000 22.232900 -177.343000 -39.081100 -0.002282 -0.040193 -0.051981 0.122477 24.297900 -40.985400 0.000008 0.000006 -2.101620 1.615580 -65.275700 -11.754300 -0.000006 -0.000006 -0.005065 -0.062090 -19.099500
0.000000 0.000000 0.000000 0.000000 0.000000 -0.000000 -2.223250 91.573400 -2.074110 87.676000 -1.554220 9.368210 15.735700 0.000005 -0.000001 85.915900 82.202100 -85.063800 8.984550 -0.406207 -0.000000 7.800130 -1.105940 1.777890 16.377300 -0.000001 -0.000001 6.433070 -2.709210 0.802645 6.456720 -0.000001 -0.000000 -0.702578 -0.947469 -1.284900 12.994200 -0.242716 4.980390 -90.392300 1.361020 -73.918100 5.348090 -0.000007 -0.000001 -62.004400 32.915000 -12.308600 24.328600 0.000019 0.000005 0.868096 1.393020 -31.933400 22.291600 -0.000001 0.000005 1.980660 5.605710 -11.689100 12.994500 -0.242716 -4.980390 88.022900 5.833030 -71.238600 -5.348130 -0.000001 -0.000004 -61.520500 28.934700 -15.529200 -24.328900 0.000322 -0.000009 -3.587400 -6.214960 -30.068100 -22.291500 -0.000108 -0.000004 5.168030 5.611590 -12.061100 -2.192480 -6.469440 -0.000000 -165.474000 -19.135300 1.448180 39.081100 -0.000007 -0.000012 -0.208458 0.454743 24.627400 40.985400 -0.000006 -0.000013 -7.315630 0.608650 -63.414800 11.754300 -0.000000 0.000003 -0.000097 -0.001003 -16.616100 -2.192510 6.469440 -0.000001 173.065000 22.196700 -177.278000 -39.081100 -0.002282 -0.040193 -0.054700 0.128545 24.290100 -40.985400 0.000008 0.000006 -2.152500 1.636720 -65.222100 -11.754300 -0.000006 -0.000006 -0.005146 -0.062871 -19.131300
0.000000 0.000000 0.000000 0.000000 0.000000 -0.000000 -2.213770 91.578800 -2.131850 87.672800 -1.605050 9.395870 15.735700 0.000005 -0.000001 85.878200 82.219500 -85.038100 8.984550 -0.406207 -0.000000 7.764590 -1.113930 1.754210 16.377300 -0.000001 -0.000001 6.552070 -2.644420 0.771290 6.456720 -0.000001 -0.000000 -0.660671 -0.866857 -1.371530 12.994200 -0.242716 4.980390 -90.366700 1.269030 -73.882700 5.348090 -0.000007 -0.000001 -61.491600 33.848300 -12.322500 24.328600 0.000019 0.000005 0.869173 1.365580 -32.479600 22.291600 -0.000001 0.000005 2.161200 5.610400 -11.983100 12.994500 -0.242716 -4.980390 88.025100 5.805250 -71.175000 -5.348130 -0.000001 -0.000004 -60.885100 28.511700 -16.089800 -24.328900 0.000322 -0.000009 -3.620500 -6.213160 -30.304600 -22.291500 -0.000108 -0.000004 5.207880 5.611790 -12.073600 -2.192480 -6.469440 -0.000000 -165.478000 -19.191500 1.440800 39.081100 -0.000007 -0.000012 -0.206655 0.450600 24.637600 40.985400 -0.000006 -0.000013 -7.290470 0.586109 -63.384300 11.754300 -0.000000 0.000003 -0.000086 -0.000902 -16.612300 -2.192510 6.469440 -0.000001 173.054000 22.212900 -177.268000 -39.081100 -0.002282 -0.040193 -0.054869 0.129132 24.254800 -40.985400 0.000008 0.000006 -2.209210 1.711420 -65.161800 -11.754300 -0.000006 -0.000006 -0.005349 -0.064799 -19.209900
0.000000 0.000000 0.000000 0.000000 0.000000 -0.000000 -2.189360 91.575100 -2.185130 87.666100 -1.680660 9.442490 15.735700 0.000005 -0.000001 85.928300 82.230200 -85.101000 8.984550 -0.406207 -0.000000 7.743890 -1.099080 1.727300 16.377300 -0.000001 -0.000001 6.644190 -2.570810 0.764845 6.456720 -0.000001 -0.000000 -0.591719 -0.791736 -1.503690 12.994200 -0.242716 4.980390 -90.343400 1.186980 -73.862500 5.348090 -0.000007 -0.000001 -60.601100 35.385100 -12.436200 24.328600 0.000019 0.000005 0.917513 1.390660 -33.420300 22.291600 -0.000001 0.000005 2.401870 5.616780 -12.398800 12.994500 -0.242716 -4.980390 88.030900 5.750880 -71.062700 -5.348130 -0.000001 -0.000004 -60.001700 28.039200 -16.860900 -24.328900 0.000322 -0.000009 -3.719470 -6.263310 -30.782200 -22.291500 -0.000108 -0.000004 5.282580 5.611040 -12.025500 -2.192480 -6.469440 -0.000000 -165.464000 -19.217300 1.445430 39.081100 -0.000007 -0.000012 -0.209210 0.455031 24.691900 40.985400 -0.000006 -0.000013 -7.271980 0.582939 -63.391300 11.754300 -0.000000 0.000003 -0.000099 -0.001024 -16.616900 -2.192510 6.469440 -0.000001 173.036000 22.129100 -177.275000 -39.081100 -0.002282 -0.040193 -0.060567 0.141772 24.255600 -40.985400 0.000008 0.000006 -2.337850 1.755550 -65.102700 -11.754300 -0.000006 -0.000006 -0.005378 -0.065076 -19.221200
0.000000 0.000000 0.000000 0.000000 0.000000 -0.000000 -2.156790 91.582700 -2.238190 87.683500 -1.754970 9.524110 15.735700 0.000005 -0.000001 85.787500 82.218400 -84.989100 8.984550 -0.406207 -0.000000 7.764740 -1.138550 1.672480 16.377300 -0.000001 -0.000001 6.732150 -2.487030 0.721457 6.456720 -0.000001 -0.000000 -0.572377 -0.658609 -1.553770 12.994200 -0.242716 4.980390 -90.308800 1.060640 -73.769000 5.348090 -0.000007 -0.000001 -59.372000 37.435500 -12.693200 24.328600 0.000019 0.000005 0.934417 1.348260 -34.728100 22.291600 -0.000001 0.000005 2.900600 5.628090 -13.191600 12.994500 -0.242716 -4.980390 88.042600 5.704830 -71.026000 -5.348130 -0.000001 -0.000004 -58.812700 27.433900 -17.837800 -24.328900 0.000322 -0.000009 -3.873410 -6.336110 -31.521800 -22.291500 -0.000108 -0.000004 5.490990 5.610660 -12.000500 -2.192480 -6.469440 -0.000000 -165.497000 -19.166600 1.521200 39.081100 -0.000007 -0.000012 -0.208887 0.454832 24.667800 40.985400 -0.000006 -0.000013 -7.264010 0.468761 -63.375500 11.754300 -0.000000 0.000003 -0.000095 -0.000983 -16.615300 -2.192510 6.469440 -0.000001 172.982000 22.075400 -177.225000 -39.081100 -0.002282 -0.040193 -0.060495 0.141780 24.230200 -40.985400 0.000008 0.000006 -2.318040 1.823050 -65.044100 -11.754300 -0.000006 -0.000006 -0.005370 -0.065005 -19.218300
0.000000 0.000000 0.000000 0.000000 0.000000 -0.000000 -2.131390 91.582300 -2.316780 87.673800 -1.874750 9.548890 15.735700 0.000005 -0.000001 85.933400 82.227300 -85.161000 8.984550 -0.406207 -0.000000 7.749130 -1.098040 1.617620 16.377300 -0.000001 -0.000001 6.815750 -2.401160 0.722941 6.456720 -0.000001 -0.000000 -0.602517 -0.621388 -1.675150 12.994200 -0.242716 4.980390 -90.269000 0.917673 -73.663600 5.348090 -0.000007 -0.000001 -57.845300 39.698800 -13.048300 24.328600 0.000019 0.000005 1.170500 1.575760 -36.610600 22.291600 -0.000001 0.000005 3.560460 5.639550 -14.082700 12.994500 -0.242716 -4.980390 88.059900 5.613800 -70.899900 -5.348130 -0.000001 -0.000004 -57.443100 26.597700 -18.999500 -24.328900 0.000322 -0.000009 -4.080760 -6.422640 -32.521600 -22.291500 -0.000108 -0.000004 5.705590 5.608370 -11.855600 -2.192480 -6.469440 -0.000000 -165.508000 -19.250900 1.477860 39.081100 -0.000007 -0.000012 -0.206675 0.448391 24.746500 40.985400 -0.000006 -0.000013 -7.237460 0.369509 -63.377200 11.754300 -0.000000 0.000003 -0.000099 -0.001019 -16.616700 -2.192510 6.469440 -0.000001 173.000000 21.997800 -177.284000 -39.081100 -0.002282 -0.040193 -0.061579 0.144083 24.245900 -40.985400 0.000008 0.000006 -2.354250 1.855620 -64.982000 -11.754300 -0.000006 -0.000006 -0.005467 -0.065910 -19.255200
0.000000 0.000000 0.000000 0.000000 0.000000 -0.000000 -2.080790 91.588800 -2.373210 87.679700 -2.044580 9.541340 15.735700 0.000005 -0.000001 86.012900 82.254000 -85.275700 8.984550 -0.406207 -0.000000 7.696900 -1.073300 1.545170 16.377300 -0.000001 -0.000001 6.900510 -2.323950 0.717979 6.456720 -0.000001 -0.000000 -0.579443 -0.535527 -1.840280 12.994200 -0.242716 4.980390 -90.219500 0.740917 -73.498900 5.348090 -0.000007 -0.000001 -55.786700 42.498700 -13.590200 24.328600 0.000019 0.000005 1.193130 1.466060 -39.150600 22.291600 -0.000001 0.000005 3.956840 5.650130 -15.026000 12.994500 -0.242716 -4.980390 88.085000 5.497420 -70.760400 -5.348130 -0.000001 -0.000004 -55.757100 25.617800 -20.461600 -24.328900 0.000322 -0.000009 -4.289620 -6.450080 -33.723800 -22.291500 -0.000108 -0.000004 6.118910 5.605500 -11.676400 -2.192480 -6.469440 -0.000000 -165.532000 -19.373900 1.477270 39.081100 -0.000007 -0.000012 -0.206032 0.446816 24.755300 40.985400 -0.000006 -0.000013 -7.199350 0.343713 -63.375700 11.754300 -0.000000 0.000003 -0.000094 -0.000977 -16.615100 -2.192510 6.469440 -0.000001 173.006000 21.882200 -177.363000 -39.081100 -0.002282 -0.040193 -0.060938 0.142800 24.224900 -40.985400 0.000008 0.000006 -2.359950 1.932280 -64.900000 -11.754300 -0.000006 -0.000006 -0.005251 -0.063873 -19.172100
